<svg xmlns="http://www.w3.org/2000/svg" enable-background="new 0 0 24 24" viewBox="0 0 24 24"><path fill="#F4A83F" d="M21.573,14.931l-1.922,0.114c-1.041,0.049-2.158,0.899-2.553,1.94l-0.141,0.363l0.099,0.144h6.599l0.169-0.127C23.936,16.95,24,16.515,24,16.066c0-2.637-2.125-4.791-4.734-4.791V11.27l-0.239,0.011l-0.127,0.1l-0.338,1.19c-0.146,0.513-0.092,0.984,0.155,1.333c0.225,0.32,0.606,0.505,1.062,0.526l1.844,0.114l0.133,0.071l0.021,0.158C21.749,14.859,21.664,14.924,21.573,14.931L21.573,14.931z"/><path fill="#ED7E1F" d="M0,16.817c0,0.177,0.014,0.356,0.035,0.534L0.204,17.5h15.982c0.091,0,0.176-0.065,0.203-0.157l0.12-0.432v-0.001c0.146-0.513,0.091-0.984-0.155-1.333c-0.225-0.321-0.604-0.506-1.061-0.527l-8.659-0.114H6.63l-0.131-0.072v-0.001l-0.02-0.157c0.027-0.085,0.112-0.15,0.204-0.158l8.737-0.114c1.035-0.05,2.16-0.899,2.553-1.94l0.499-1.319l0.016-0.17C17.924,8.425,15.651,6.5,12.937,6.5c-2.504,0-4.628,1.64-5.389,3.913c-0.492-0.371-1.118-0.57-1.794-0.505c-1.203,0.12-2.166,1.098-2.286,2.317c-0.027,0.314-0.007,0.621,0.063,0.906C1.568,13.187,0,14.813,0,16.817L0,16.817z"/><path fill="#D49237" d="M23.807,14.711h-2.038l0.009,0.063c-0.028,0.086-0.113,0.15-0.204,0.157l-1.922,0.114c-1.041,0.049-2.158,0.899-2.553,1.94l-0.141,0.363l0.099,0.144h6.599l0.169-0.127C23.936,16.95,24,16.515,24,16.066C24,15.596,23.933,15.141,23.807,14.711L23.807,14.711z"/><path fill="#CE6E1B" d="M6.479,14.711h-5.83C0.24,15.307,0,16.033,0,16.817l0,0c0,0.177,0.014,0.356,0.035,0.534L0.204,17.5h15.982c0.091,0,0.176-0.065,0.203-0.157l0.12-0.432v-0.001c0.146-0.513,0.091-0.984-0.155-1.333c-0.225-0.321-0.604-0.506-1.061-0.527l-8.659-0.114H6.63l-0.131-0.072v-0.001L6.479,14.711L6.479,14.711z"/></svg>