<svg xmlns="http://www.w3.org/2000/svg" enable-background="new 0 0 24 24" viewBox="0 0 24 24"><path fill="#FFF" d="M12.546,24l-0.639-0.218c0,0,0.078-3.257-1.091-3.491c-0.779-0.904,0.125-38.338,2.93-0.125c0,0-0.966,0.483-1.138,1.309C12.422,22.286,12.546,24,12.546,24L12.546,24z"/><path fill="#A6A385" d="M12.546,24l-0.639-0.218c0,0,0.078-3.257-1.091-3.491c-0.779-0.904,0.125-38.338,2.93-0.125c0,0-0.966,0.483-1.138,1.309C12.422,22.286,12.546,24,12.546,24L12.546,24z"/><path fill="#FFF" d="M12.889,20.852c0,0,5.595-3.678,4.286-11.33c-1.262-5.563-4.239-7.387-4.566-8.088c-0.358-0.499-0.701-1.371-0.701-1.371l0.234,15.475C12.141,15.553,11.658,20.275,12.889,20.852L12.889,20.852z"/><path fill="#499D4A" d="M12.889,20.852c0,0,5.595-3.678,4.286-11.33c-1.262-5.563-4.239-7.387-4.566-8.088c-0.358-0.499-0.701-1.371-0.701-1.371l0.234,15.475C12.141,15.553,11.658,20.275,12.889,20.852L12.889,20.852z"/><path fill="#FFF" d="M11.58,21.054c0,0-5.252-3.584-4.94-9.896c0.296-6.312,4.005-9.413,4.722-9.974C11.83,0.686,11.845,0.499,11.876,0c0.327,0.701,0.265,10.488,0.312,11.641C12.328,16.083,11.939,20.213,11.58,21.054z"/><path fill="#58AA50" d="M11.58,21.054c0,0-5.252-3.584-4.94-9.896c0.296-6.312,4.005-9.413,4.722-9.974C11.83,0.686,11.845,0.499,11.876,0c0.327,0.701,0.265,10.488,0.312,11.641C12.328,16.083,11.939,20.213,11.58,21.054z"/></svg>