<svg xmlns="http://www.w3.org/2000/svg" enable-background="new 0 0 24 24" viewBox="0 0 24 24"><path d="M23.961,11.954l-0.017-0.007l0.049,0.049C24.014,11.996,23.961,11.954,23.961,11.954z"/><polygon points="23.272 12.518 23.272 12.562 23.366 12.602"/><linearGradient id="a" x1="14.937" x2="14.937" y1="2.125" y2="22.753" gradientUnits="userSpaceOnUse"><stop offset="0" stop-color="#39c4b6"/><stop offset="1" stop-color="#529ac3"/></linearGradient><path fill="url(#a)" d="M14.933,16.276v0.004C14.946,16.286,14.94,16.281,14.933,16.276z"/><linearGradient id="b" x1="3.046" x2="3.046" y1="2.125" y2="22.753" gradientUnits="userSpaceOnUse"><stop offset="0" stop-color="#39c4b6"/><stop offset="1" stop-color="#529ac3"/></linearGradient><polygon fill="url(#b)" points="2.743 14.98 5.526 13.796 5.557 13.787 .534 12.738"/><linearGradient id="c" x1="6.959" x2="6.959" y1="2.125" y2="22.753" gradientUnits="userSpaceOnUse"><stop offset="0" stop-color="#39c4b6"/><stop offset="1" stop-color="#529ac3"/></linearGradient><path fill="url(#c)" d="M6.886,12.313c0.055,0,0.11,0.003,0.164,0.008L7.044,12.32c0.052-0.007,0.111-0.011,0.172-0.011c0.061,0,0.12,0.004,0.179,0.012L7.388,12.32l2.741-4.265C9.923,7.842,9.796,7.55,9.795,7.229C9.79,7.188,9.788,7.14,9.788,7.093s0.003-0.095,0.008-0.141L9.795,6.958l-3.328-1.54L3.789,8.026l2.94,4.294C6.776,12.315,6.831,12.313,6.886,12.313z"/><linearGradient id="d" x1="14.411" x2="14.411" y1="2.125" y2="22.753" gradientUnits="userSpaceOnUse"><stop offset="0" stop-color="#39c4b6"/><stop offset="1" stop-color="#529ac3"/></linearGradient><path fill="url(#d)" d="M16.159,8.413l0.575-3.562l-2.135-2.242l-2.511,3.865v0.053c0.109,0.164,0.184,0.359,0.208,0.57l0.001,0.006l3.505,1.487c0.101-0.078,0.22-0.139,0.349-0.176L16.159,8.413z"/><linearGradient id="e" x1="19.685" x2="19.685" y1="2.125" y2="22.753" gradientUnits="userSpaceOnUse"><stop offset="0" stop-color="#39c4b6"/><stop offset="1" stop-color="#529ac3"/></linearGradient><path fill="url(#e)" d="M23.327,12.605l-5.933-2.537c-0.166,0.22-0.414,0.37-0.697,0.407l-0.005,0.001l-0.649,3.971c0.186,0.189,0.303,0.448,0.304,0.733l3.641,0.765l3.338-3.321V12.605z"/><linearGradient id="f" x1="20.869" x2="20.869" y1="2.125" y2="22.753" gradientUnits="userSpaceOnUse"><stop offset="0" stop-color="#39c4b6"/><stop offset="1" stop-color="#529ac3"/></linearGradient><polygon fill="url(#f)" points="20.293 8.276 17.739 9.324 24 11.988"/><linearGradient id="g" x1="3.031" x2="3.031" y1="2.125" y2="22.753" gradientUnits="userSpaceOnUse"><stop offset="0" stop-color="#39c4b6"/><stop offset="1" stop-color="#529ac3"/></linearGradient><path fill="url(#g)" d="M5.818,13.085H5.82c0.069-0.128,0.149-0.238,0.242-0.336L6.06,12.75L3.286,8.601L0,11.796L5.818,13.085z"/><linearGradient id="h" x1="11.826" x2="11.826" y1="2.125" y2="22.753" gradientUnits="userSpaceOnUse"><stop offset="0" stop-color="#39c4b6"/><stop offset="1" stop-color="#529ac3"/></linearGradient><path fill="url(#h)" d="M15.446,9.439c-0.002-0.023-0.003-0.048-0.003-0.074c0-0.03,0.001-0.058,0.004-0.087v0.004c0.001-0.003,0.001-0.006,0.001-0.009c0-0.012-0.004-0.023-0.011-0.032l-3.276-1.395c-0.218,0.33-0.587,0.546-1.007,0.546c-0.014,0-0.028,0-0.041-0.001h-0.197l-2.71,4.191L15.446,9.439z"/><linearGradient id="i" x1="4.657" x2="4.657" y1="2.125" y2="22.753" gradientUnits="userSpaceOnUse"><stop offset="0" stop-color="#39c4b6"/><stop offset="1" stop-color="#529ac3"/></linearGradient><polygon fill="url(#i)" points="3.339 15.494 4.574 16.72 5.976 14.541 5.882 14.446"/><linearGradient id="j" x1="17.21" x2="17.21" y1="2.125" y2="22.753" gradientUnits="userSpaceOnUse"><stop offset="0" stop-color="#39c4b6"/><stop offset="1" stop-color="#529ac3"/></linearGradient><path fill="url(#j)" d="M16.21,15.913c-0.119,0.152-0.275,0.27-0.454,0.342l-0.007,0.003l-0.763,4.736l4.447-4.411c0,0-0.01,0.02-0.021,0.02v-0.03L16.21,15.913z"/><linearGradient id="k" x1="18.288" x2="18.288" y1="2.125" y2="22.753" gradientUnits="userSpaceOnUse"><stop offset="0" stop-color="#39c4b6"/><stop offset="1" stop-color="#529ac3"/></linearGradient><path fill="url(#k)" d="M16.974,8.507c0.118,0.06,0.218,0.137,0.303,0.23l0.001,0.001l2.354-1.049l-2.197-2.178l-0.492,2.964L16.974,8.507z"/><linearGradient id="l" x1="15.446" x2="15.446" y1="2.125" y2="22.753" gradientUnits="userSpaceOnUse"><stop offset="0" stop-color="#39c4b6"/><stop offset="1" stop-color="#529ac3"/></linearGradient><polygon fill="url(#l)" points="15.446 9.439 15.446 9.439 15.446 9.449"/><linearGradient id="m" x1="9.105" x2="9.105" y1="2.125" y2="22.753" gradientUnits="userSpaceOnUse"><stop offset="0" stop-color="#39c4b6"/><stop offset="1" stop-color="#529ac3"/></linearGradient><path fill="url(#m)" d="M11.899,24l1.193-1.184L7.681,14.97c-0.165,0.078-0.36,0.124-0.564,0.125c-0.002,0-0.004,0-0.006,0c-0.159,0-0.313-0.027-0.455-0.076l0.01,0.003l-1.548,2.253L11.899,24z"/><linearGradient id="n" x1="12.103" x2="12.103" y1="2.125" y2="22.753" gradientUnits="userSpaceOnUse"><stop offset="0" stop-color="#39c4b6"/><stop offset="1" stop-color="#529ac3"/></linearGradient><path fill="url(#n)" d="M8.373,13.399c0.034,0.052,0.068,0.114,0.099,0.178l0.005,0.011l5.892,1.215c0.17-0.294,0.472-0.495,0.822-0.524h0.004l0.639-3.907l-0.135-0.115L8.373,13.399z"/><linearGradient id="o" x1="10.536" x2="10.536" y1="2.125" y2="22.753" gradientUnits="userSpaceOnUse"><stop offset="0" stop-color="#39c4b6"/><stop offset="1" stop-color="#529ac3"/></linearGradient><path fill="url(#o)" d="M11.951,0L7.033,4.829c0,0-0.01,0.052,0,0.063l3.245,1.383c0.214-0.177,0.489-0.284,0.791-0.284c0.016,0,0.032,0,0.048,0.001h-0.002c0.142,0.001,0.28,0.024,0.408,0.066l-0.01-0.003l2.532-3.96L11.951,0z"/><linearGradient id="p" x1="11.6" x2="11.6" y1="2.125" y2="22.753" gradientUnits="userSpaceOnUse"><stop offset="0" stop-color="#39c4b6"/><stop offset="1" stop-color="#529ac3"/></linearGradient><path fill="url(#p)" d="M14.318,15.543l-0.002-0.007L8.352,14.31l-0.084,0.136l5.411,7.837l0.324-0.325l0.921-5.689c0,0,0.006,0.004,0.01,0.007v-0.028C14.628,16.121,14.4,15.861,14.318,15.543z"/></svg>