<svg width="164" height="168" viewBox="0 0 164 168" fill="none" xmlns="http://www.w3.org/2000/svg">
<g filter="url(#filter0_i_1_35)">
<g clip-path="url(#clip0_1_35)">
<path d="M0 82C0 36.7127 36.7127 0 82 0C127.287 0 164 36.7127 164 82V86C164 131.287 127.287 168 82 168C36.7127 168 0 131.287 0 86V82Z" fill="#F9F7B2"/>
<g filter="url(#filter1_f_1_35)">
<ellipse cx="75.0301" cy="69.5882" rx="88.97" ry="89.3529" fill="#EFAA86"/>
</g>
<g opacity="0.7" filter="url(#filter2_f_1_35)">
<circle cx="62" cy="45" r="55" fill="#DDFAEE"/>
</g>
<g filter="url(#filter3_f_1_35)">
<ellipse rx="23.3175" ry="14.267" transform="matrix(0.981129 -0.193352 0.191759 0.981442 95.3132 145.334)" fill="#F4DACB"/>
</g>
</g>
</g>
<defs>
<filter id="filter0_i_1_35" x="0" y="0" width="164" height="168" filterUnits="userSpaceOnUse" color-interpolation-filters="sRGB">
<feFlood flood-opacity="0" result="BackgroundImageFix"/>
<feBlend mode="normal" in="SourceGraphic" in2="BackgroundImageFix" result="shape"/>
<feColorMatrix in="SourceAlpha" type="matrix" values="0 0 0 0 0 0 0 0 0 0 0 0 0 0 0 0 0 0 127 0" result="hardAlpha"/>
<feMorphology radius="4" operator="erode" in="SourceAlpha" result="effect1_innerShadow_1_35"/>
<feOffset/>
<feGaussianBlur stdDeviation="15"/>
<feComposite in2="hardAlpha" operator="arithmetic" k2="-1" k3="1"/>
<feColorMatrix type="matrix" values="0 0 0 0 0.9875 0 0 0 0 0.645509 0 0 0 0 0.576042 0 0 0 0.6 0"/>
<feBlend mode="normal" in2="shape" result="effect1_innerShadow_1_35"/>
</filter>
<filter id="filter1_f_1_35" x="-73.9399" y="-79.7647" width="297.94" height="298.706" filterUnits="userSpaceOnUse" color-interpolation-filters="sRGB">
<feFlood flood-opacity="0" result="BackgroundImageFix"/>
<feBlend mode="normal" in="SourceGraphic" in2="BackgroundImageFix" result="shape"/>
<feGaussianBlur stdDeviation="30" result="effect1_foregroundBlur_1_35"/>
</filter>
<filter id="filter2_f_1_35" x="-43" y="-60" width="210" height="210" filterUnits="userSpaceOnUse" color-interpolation-filters="sRGB">
<feFlood flood-opacity="0" result="BackgroundImageFix"/>
<feBlend mode="normal" in="SourceGraphic" in2="BackgroundImageFix" result="shape"/>
<feGaussianBlur stdDeviation="25" result="effect1_foregroundBlur_1_35"/>
</filter>
<filter id="filter3_f_1_35" x="42.2705" y="100.62" width="106.085" height="89.4282" filterUnits="userSpaceOnUse" color-interpolation-filters="sRGB">
<feFlood flood-opacity="0" result="BackgroundImageFix"/>
<feBlend mode="normal" in="SourceGraphic" in2="BackgroundImageFix" result="shape"/>
<feGaussianBlur stdDeviation="15" result="effect1_foregroundBlur_1_35"/>
</filter>
<clipPath id="clip0_1_35">
<path d="M0 82C0 36.7127 36.7127 0 82 0C127.287 0 164 36.7127 164 82V86C164 131.287 127.287 168 82 168C36.7127 168 0 131.287 0 86V82Z" fill="white"/>
</clipPath>
</defs>
</svg>
